,
Brought to you by  http://www.scenetime.com/signup.php
 
 Hottest scene tracker on the net !!!   
 
No fake torrents from scenebalance 
shame on those who comment fake before downloading my torrents

    seed back for speed


 



...................................NFO:.................................................   
                                                                                  :::   .:         ::     .::        ::    .::.        .:.     .                       
              :::::. :::::                              ::::::  :::::.                              .:::::::.                                   .: 
   :::::..:::::                              :::::: .::::.                              :::::::::::                                  .::::. :::::.    
   :::::..:::::         ::::::::::::.        ::::::.::::.         ::::::::::::.        .::::: ::::::         ::::. .:::  ::::.       .:::::.:::::.    
   :::::..:::::         ::::::..:::::        :::::::::::          ::::::..:::::.       .::::: ::::::         .:::. ::::  ::::        .:::::::::::.    
   :::::. :::::         :::::. .:::::        ::::::::::.          ::::::  ::::::       .::::: ::::::         .:::. ::::..::::        .:::::::::::.    
   :::::..:::::         :::::. .:::::        ::::::::::           ::::::  :::::.       .::::: ::::::         .::::.::::.:::::        .:::::::::::.    
   :::::..:::::         :::::. .:::::        ::::::::::.          ::::::  :::::.       .::::: ::::::          ::::::::::::::.        .:::::::::::.    
   :::::..:::::         :::::. .:::::        :::::::::::.         ::::::  :::::.       .::::: ::::::          .:::::::::::::         .:::::::::::.    
   .::::..:::::         :::::. .:::::        :::::: :::::         ::::::  :::::.       .::::: :::::.          .:::::. ::::::         .:::::.:::::.    
    ::::::::::.         :::::. .:::::        :::::: .::::.        ::::::  :::::.        :::::::::::           .:::::. ::::::         .:::::  ::::.    
     .::::::.           :::::. .:::::        ::::::  :::::.       ::::::  :::::.         ..::::::.             :::::  .::::.         .:::::  ::::.                                  
   
    
                     NOTES                                      NOTES                                 

                     NOTES                                      NOTES          
                                   
                                                                

  Encoded By .......:UnKnOwN                                                     Release Date ......... 2011
  Runtime ..........:1:24                                                        Source       ......... Always UnKnOWn
  IMDb URL ..........http://www.imdb.com/title/tt1341710/                        File Type    ......... Single AVI
  Language .........:English                                                     PS3 Compatible ....... Get a XBOX 
  File Size ........:1.02gb                                                      Genre        ......... Horror/Thriller




Video
ID                               : 0
Format                           : MPEG-4 Visual
Format profile                   : Advanced Simple@L5
Format settings, BVOP            : Yes
Format settings, QPel            : No
Format settings, GMC             : No warppoints
Format settings, Matrix          : Custom
Codec ID                         : XVID
Codec ID/Hint                    : XviD
Duration                         : 1h 24mn
Bit rate                         : 1 470 Kbps
Width                            : 704 pixels
Height                           : 386 pixels
Display aspect ratio             : 16:9
Frame rate                       : 23.976 fps
Color space                      : YUV
Chroma subsampling               : 4:2:0
Bit depth                        : 8 bits
Scan type                        : Progressive
Bits/(Pixel*Frame)               : 0.226
Stream size                      : 884 MiB (88%)
Writing library                  : XviD 1.2.1 (UTC 2008-12-04)

Audio
ID                               : 1
Format                           : AC-3
Format/Info                      : Audio Coding 3
Mode extension                   : CM (complete main)
Codec ID                         : 2000
Duration                         : 1h 24mn
Bit rate mode                    : Constant
Bit rate                         : 192 Kbps
Channel(s)                       : 2 channels
Channel positions                : Front: L R
Sampling rate                    : 48.0 KHz
Bit depth                        : 16 bits
Stream size                      : 115 MiB (12%)
Alignment                        : Aligned on interleaves
Interleave, duration             : 480 ms (11.51 video frames)
Interleave, preload duration     : 960 ms
                

                                                                    SYSPNOSIS

                                   A group of young journalists investigate a cult said to practice human sacrifice,
                                      but their ambitious ways may lead them to becoming the cult's next victims.



                                                                   RELEASE INFO
                                    Now this movie had quite a bit of polish but it is there for a reason to frustrate
                                     the hell out of the watcher and keep em guessin once you watch will make sense.

                                         


                             
                                               
                                                     
                                                                 LOOKING FOR
                                                                                                                
                                                          THAT BLONDE WITH THE SQUEEZE ME
                                                           TATOO ON HER LEFT BUTT CHEEK
                             




                             
                                            GREETZ & RESPECT                   
                              
                                                            NOBODY YET WILL LET YOU KNOW

                                                            MORE GOODIES COMING REAL SOON